<?xml version="1.0" encoding="utf-8"?>
<!-- Generator: Adobe Illustrator 16.0.0, SVG Export Plug-In . SVG Version: 6.00 Build 0)  -->
<!DOCTYPE svg PUBLIC "-//W3C//DTD SVG 1.1//EN" "http://www.w3.org/Graphics/SVG/1.1/DTD/svg11.dtd">
<svg version="1.1" id="Layer_1" xmlns="http://www.w3.org/2000/svg" xmlns:xlink="http://www.w3.org/1999/xlink" x="0px" y="0px"
	 width="500px" height="500px" viewBox="0 0 500 500" enable-background="new 0 0 500 500" xml:space="preserve">
<path fill-rule="evenodd" clip-rule="evenodd" fill="#30344C" d="M86.5,33c27.338,0,49.5,22.162,49.5,49.5
	c0,27.338-22.162,49.5-49.5,49.5S37,109.838,37,82.5C37,55.162,59.162,33,86.5,33z"/>
<path fill-rule="evenodd" clip-rule="evenodd" fill="#30344C" d="M250.5,33c27.338,0,49.5,22.162,49.5,49.5
	c0,27.338-22.162,49.5-49.5,49.5S201,109.838,201,82.5C201,55.162,223.162,33,250.5,33z"/>
<path fill-rule="evenodd" clip-rule="evenodd" fill="#30344C" d="M413.5,33c27.338,0,49.5,22.162,49.5,49.5
	c0,27.338-22.162,49.5-49.5,49.5c-27.338,0-49.5-22.162-49.5-49.5C364,55.162,386.162,33,413.5,33z"/>
<path fill-rule="evenodd" clip-rule="evenodd" fill="#30344C" d="M86.5,198c27.338,0,49.5,22.162,49.5,49.5
	c0,27.338-22.162,49.5-49.5,49.5S37,274.838,37,247.5C37,220.162,59.162,198,86.5,198z"/>
<path fill-rule="evenodd" clip-rule="evenodd" fill="#30344C" d="M413.5,198c27.338,0,49.5,22.162,49.5,49.5
	c0,27.338-22.162,49.5-49.5,49.5c-27.338,0-49.5-22.162-49.5-49.5C364,220.162,386.162,198,413.5,198z"/>
<path fill-rule="evenodd" clip-rule="evenodd" fill="#30344C" d="M86.5,363c27.338,0,49.5,22.162,49.5,49.5S113.838,462,86.5,462
	S37,439.838,37,412.5S59.162,363,86.5,363z"/>
<path fill-rule="evenodd" clip-rule="evenodd" fill="#30344C" d="M250.5,363c27.338,0,49.5,22.162,49.5,49.5S277.838,462,250.5,462
	S201,439.838,201,412.5S223.162,363,250.5,363z"/>
<path fill-rule="evenodd" clip-rule="evenodd" fill="#30344C" d="M413.5,363c27.338,0,49.5,22.162,49.5,49.5S440.838,462,413.5,462
	c-27.338,0-49.5-22.162-49.5-49.5S386.162,363,413.5,363z"/>
<path fill-rule="evenodd" clip-rule="evenodd" fill="#30344C" d="M324,195H174c-4.418,0-8,3.582-8,8v88c0,4.418,3.582,8,8,8h150
	c4.418,0,8-3.582,8-8v-88C332,198.582,328.418,195,324,195z M319,276.741c0,4.009-3.249,7.259-7.257,7.259H185.257
	c-4.008,0-7.257-3.25-7.257-7.259v-63.481c0-4.009,3.25-7.259,7.257-7.259h126.485c4.008,0,7.257,3.25,7.257,7.259V276.741z"/>
<path fill-rule="evenodd" clip-rule="evenodd" fill="#30344C" d="M202.448,301h93.104c1.904,0,3.448,1.567,3.448,3.5
	s-1.544,3.5-3.448,3.5h-93.104c-1.904,0-3.448-1.567-3.448-3.5S200.544,301,202.448,301z"/>
<path fill-rule="evenodd" clip-rule="evenodd" fill="#30344C" d="M204,219h25v58h-25V219z"/>
<path fill-rule="evenodd" clip-rule="evenodd" fill="#30344C" d="M238,247h25v30h-25V247z"/>
<path fill-rule="evenodd" clip-rule="evenodd" fill="#30344C" d="M272,236h25v41h-25V236z"/>
</svg>
